<svg height='100px' width='100px'  fill="#000000" xmlns:x="http://ns.adobe.com/Extensibility/1.0/" xmlns:i="http://ns.adobe.com/AdobeIllustrator/10.0/" xmlns:graph="http://ns.adobe.com/Graphs/1.0/" xmlns="http://www.w3.org/2000/svg" xmlns:xlink="http://www.w3.org/1999/xlink" version="1.1" x="0px" y="0px" viewBox="0 0 100 100" enable-background="new 0 0 100 100" xml:space="preserve"><g><g i:extraneous="self"><path d="M72.5,29H61v-0.52c0-3.3-2.18-5.48-5.48-5.48h-7.04c-3.3,0-6.48,2.18-6.48,5.48V29H31.5C24.87,29,19,33.87,19,40.5v19    C19,66.13,24.87,72,31.5,72h41C79.13,72,84,66.13,84,59.5v-19C84,33.87,79.13,29,72.5,29z M52.003,61.324    c-6.254,0-11.324-5.07-11.324-11.324c0-6.254,5.07-11.324,11.324-11.324c6.254,0,11.324,5.07,11.324,11.324    C63.327,56.254,58.257,61.324,52.003,61.324z"></path></g></g></svg>